<?xml version="1.0" standalone="no"?>
<!DOCTYPE svg PUBLIC "-//W3C//DTD SVG 20010904//EN"
 "http://www.w3.org/TR/2001/REC-SVG-20010904/DTD/svg10.dtd">
<svg version="1.0" xmlns="http://www.w3.org/2000/svg"
 width="3240.000000pt" height="3240.000000pt" viewBox="0 0 3240.000000 3240.000000"
 preserveAspectRatio="xMidYMid meet">
<metadata>
Created by potrace 1.11, written by Peter Selinger 2001-2013
</metadata>
<g transform="translate(0.000000,3240.000000) scale(0.100000,-0.100000)"
fill="#000000" stroke="none">
<path d="M9382 32035 l-32 -27 -2 -3730 -3 -3730 -2419 -1307 c-1752 -947
-2422 -1314 -2432 -1332 -21 -38 -21 -11578 0 -11617 12 -21 514 -296 2435
-1332 l2420 -1305 1 -3731 c0 -3723 0 -3731 20 -3757 33 -42 69 -43 147 -4 37
19 1607 850 3487 1846 l3420 1811 3283 -1775 c1805 -976 3293 -1777 3307
-1781 28 -7 80 17 92 43 5 10 11 1573 14 3543 l5 3525 2476 1309 c1928 1018
2479 1314 2488 1333 16 35 16 12132 0 12167 -9 19 -174 111 -728 404 -394 208
-1509 799 -2478 1311 l-1763 933 -2 3524 -3 3523 -22 23 c-53 52 153 159
-3378 -1751 -1804 -975 -3284 -1774 -3290 -1773 -5 0 -1571 826 -3480 1837
-1908 1010 -3484 1839 -3501 1842 -23 4 -38 -1 -62 -22z m4451 -2666 c2267
-1200 4174 -2209 4238 -2243 64 -34 2272 -1202 4907 -2596 l4791 -2535 -2
-5895 -2 -5895 -3140 -1661 c-1727 -913 -3145 -1666 -3152 -1672 -9 -9 -11563
-6125 -11750 -6221 l-43 -21 0 15466 c0 13867 2 15466 15 15460 9 -3 1871
-987 4138 -2187z m8954 -4356 c-2 -2 -308 158 -680 354 l-677 358 0 1663 0
1663 -25 24 c-15 16 -35 25 -56 25 -23 0 -445 -223 -1549 -819 -834 -451
-1532 -827 -1552 -836 l-35 -17 -716 378 c-393 209 -714 380 -713 382 2 1
1353 731 3002 1622 l2999 1620 3 -3207 c1 -1763 0 -3208 -1 -3210z m-13437
-1611 l0 -768 -1562 -844 c-860 -465 -1575 -857 -1590 -872 l-28 -26 0 -4791
0 -4790 23 -25 c12 -13 727 -406 1590 -872 l1567 -847 0 -768 0 -767 -383 206
c-210 114 -1232 666 -2270 1227 l-1887 1020 0 5620 0 5620 38 16 c20 10 1040
559 2267 1222 1227 663 2231 1206 2233 1206 1 1 2 -345 2 -767z m13440 -19427
l0 -3216 -22 12 c-102 54 -5904 3187 -5940 3208 l-47 27 713 377 c392 207 717
377 723 377 5 0 706 -376 1556 -835 1097 -593 1555 -835 1577 -835 19 0 40 9
55 25 l25 24 0 1663 0 1663 378 199 c207 110 380 203 383 208 5 8 578 315 592
317 4 1 7 -1446 7 -3214z"/>
<path d="M10922 29504 c-7 -3 -19 -19 -27 -34 -22 -43 -23 -26692 -1 -26745
12 -27 22 -35 52 -41 21 -4 49 -2 63 3 40 15 7895 4174 7901 4183 3 4 1721
916 3818 2026 3130 1656 3816 2023 3828 2046 12 23 14 734 12 5172 -3 5131 -3
5145 -23 5164 -11 11 -3510 1866 -7775 4123 -7882 4171 -7795 4126 -7848 4103z
m1108 -917 l535 -283 0 -12209 0 -12208 -545 -289 c-300 -159 -605 -320 -677
-359 l-133 -70 0 12926 0 12926 143 -75 c78 -41 383 -203 677 -359z m2067
-12492 l-2 -11400 -590 -312 c-324 -172 -593 -313 -597 -313 -5 0 -8 5413 -8
12029 l0 12029 600 -317 600 -316 -3 -11400z m1051 10845 l482 -255 0 -1487 0
-1488 -97 52 c-54 29 -323 173 -598 319 l-500 267 -3 1486 -2 1486 118 -63
c65 -34 334 -177 600 -317z m1530 -810 l482 -255 0 -1488 c0 -859 -4 -1487 -9
-1485 -5 2 -275 144 -600 317 l-591 314 0 1489 0 1488 118 -63 c65 -34 335
-177 600 -317z m1517 -802 l500 -264 3 -1493 c2 -1193 0 -1492 -10 -1488 -7 3
-278 146 -603 319 l-590 314 -3 1491 -2 1491 102 -53 c57 -30 328 -173 603
-317z m1432 -759 c323 -172 591 -315 596 -318 4 -4 6 -678 5 -1498 l-3 -1491
-595 317 -595 317 -3 1492 c-1 821 0 1492 2 1492 3 0 269 -140 593 -311z
m1543 -817 l585 -310 3 -1497 c2 -1252 0 -1496 -11 -1492 -8 3 -277 145 -598
316 l-584 310 -3 1497 c-2 1196 0 1495 10 1491 7 -3 276 -144 598 -315z
m-2222 -2187 c2321 -1237 4218 -2253 4214 -2257 -4 -3 -1530 -707 -3392 -1564
-1862 -856 -3395 -1566 -3407 -1577 -17 -15 -23 -32 -23 -62 0 -30 6 -47 23
-62 12 -11 222 -111 467 -223 245 -112 447 -208 450 -212 5 -7 5679 -2619
5837 -2687 l61 -27 -4246 -2264 c-2335 -1246 -4303 -2296 -4374 -2333 l-128
-68 0 7871 0 7871 148 -78 c82 -43 2048 -1090 4370 -2328z m3747 1381 l590
-313 3 -1502 2 -1502 -148 78 c-81 43 -351 186 -600 318 l-451 240 -1 1498 c0
823 3 1497 8 1497 4 -1 273 -142 597 -314z m1530 -809 l590 -313 0 -5724 0
-5723 -590 -313 c-324 -172 -593 -313 -597 -313 -5 -1 -8 2857 -8 6349 0 3493
3 6350 8 6350 4 0 273 -141 597 -313z m1720 -909 l290 -154 3 -4971 2 -4971
-536 -283 c-295 -156 -541 -285 -545 -287 -5 -2 -9 2454 -9 5541 l0 5545 253
-133 c138 -74 383 -203 542 -287z m-2655 -5129 c0 -2749 -1 -2891 -17 -2885
-10 4 -280 127 -600 274 l-582 267 -1 2345 0 2345 593 272 c325 150 595 273
600 273 4 0 7 -1301 7 -2891z m-1530 1 c0 -2083 -1 -2190 -17 -2181 -10 5
-263 121 -563 259 -300 137 -562 258 -583 268 l-37 18 2 1639 3 1639 590 273
c325 150 593 273 598 274 4 1 7 -985 7 -2189z m-1535 -1478 c-2 -2 -272 119
-600 269 l-595 274 0 935 0 936 598 275 597 274 3 -1479 c1 -814 0 -1481 -3
-1484z m-1525 1478 c0 -429 -2 -780 -4 -780 -9 0 -611 282 -616 288 -3 5 -137
69 -298 142 l-292 135 2 223 3 223 595 274 c327 151 598 274 603 274 4 1 7
-350 7 -779z m-1543 -56 c-2 -2 -37 10 -76 28 l-73 32 74 37 73 37 3 -65 c2
-36 1 -67 -1 -69z m6131 -4975 l-3 -1500 -585 -311 c-322 -171 -591 -313 -597
-315 -10 -4 -13 299 -13 1493 l0 1499 593 316 c325 174 595 317 600 318 4 1 6
-674 5 -1500z m-1530 -815 l-3 -1496 -594 -314 c-327 -173 -596 -314 -598
-314 -1 0 -2 673 -1 1496 l3 1495 590 315 c325 172 593 314 598 314 4 0 6
-673 5 -1496z m-1528 -808 l0 -1494 -591 -313 c-326 -173 -596 -315 -600 -317
-5 -2 -9 667 -9 1490 l1 1493 592 317 c326 174 595 317 600 317 4 1 7 -671 7
-1493z m-1530 -810 l0 -1494 -252 -133 c-139 -73 -258 -138 -265 -145 -13 -12
-676 -364 -686 -364 -4 0 -7 672 -7 1493 l1 1492 602 321 c331 177 603 322
605 323 1 1 2 -671 2 -1493z m-1540 -823 l0 -1498 -595 -312 c-326 -172 -596
-313 -599 -313 -3 0 -6 670 -6 1489 l0 1489 598 320 c328 176 598 320 600 321
1 1 2 -673 2 -1496z m-1530 -810 l-1 -1498 -501 -265 c-276 -146 -546 -288
-600 -317 l-98 -51 2 1491 3 1490 585 313 c322 172 590 317 595 323 6 5 11 10
13 11 1 0 2 -674 2 -1497z"/>
<path d="M15655 21715 l-25 -24 0 -2125 c0 -1168 3 -2132 6 -2141 8 -19 55
-45 83 -45 32 0 4264 1948 4284 1971 9 12 17 36 17 54 0 18 -8 42 -17 54 -10
11 -972 529 -2138 1151 -1580 842 -2128 1130 -2153 1130 -22 0 -41 -8 -57 -25z"/>
<path d="M15655 14795 l-25 -24 0 -2124 c0 -2113 0 -2124 20 -2150 32 -40 69
-43 137 -9 288 146 4202 2238 4216 2254 9 11 17 35 17 53 0 18 -8 42 -17 54
-28 33 -4245 1971 -4289 1971 -24 0 -43 -8 -59 -25z"/>
</g>
</svg>
